<svg width="120" height="120" viewBox="0 0 120 120" fill="none" xmlns="http://www.w3.org/2000/svg">
<path d="M59.9964 13.0596C44.7969 13.0561 30.3578 19.707 20.4819 31.2607C19.7639 32.1003 19.8624 33.3628 20.7019 34.0809C21.5415 34.7989 22.804 34.7004 23.5221 33.8609C32.6374 23.1952 45.966 17.0556 59.9964 17.0598C61.1009 17.0598 61.9965 16.1643 61.9965 15.0597C61.9965 13.9551 61.1009 13.0596 59.9964 13.0596Z" fill="#62487C" fill-opacity="0.7"/>
<path d="M118.502 61.9947C118.505 46.7952 111.854 32.3561 100.3 22.4802C99.4608 21.7621 98.1983 21.8606 97.4802 22.7002C96.7622 23.5398 96.8607 24.8023 97.7002 25.5204C108.366 34.6357 114.506 47.9643 114.501 61.9947C114.501 63.0992 115.397 63.9948 116.501 63.9948C117.606 63.9948 118.502 63.0992 118.502 61.9947Z" fill="#62487C" fill-opacity="0.7"/>
<path d="M118.172 81.8839L104.861 68.5651C104.124 67.834 103.296 67.2007 102.397 66.681C106.643 63.1482 107.221 56.8426 103.688 52.5971C100.155 48.3513 93.8495 47.7733 89.604 51.306C85.3582 54.8387 84.7802 61.1444 88.3129 65.3899C88.7922 65.9659 89.3347 66.4862 89.93 66.941C89.2137 67.3977 88.5484 67.93 87.9459 68.5291L84.3097 71.9813C83.0368 73.1976 81.0207 73.1574 79.7974 71.8913L66.4806 58.5724C65.9148 58.0082 65.2935 57.5021 64.6264 57.0624C70.1533 53.4044 71.6684 45.9584 68.0104 40.4316C64.3524 34.9047 56.9065 33.3896 51.3796 37.0476C45.8528 40.7056 44.3377 48.1515 47.9957 53.6784C48.885 55.0222 50.0358 56.173 51.3796 57.0624C50.7133 57.5034 50.0931 58.0099 49.5275 58.5744L39.3369 68.7751L30.3583 62.3267C29.8421 61.8359 29.2833 61.3921 28.6882 61.0006C29.5013 60.4466 30.2441 59.7958 30.9004 59.0625H35.9947C37.0993 59.063 37.9953 58.1679 37.9958 57.0634C37.9961 56.7526 37.9238 56.4463 37.7848 56.1683L33.3325 47.2617C32.9763 46.1579 32.458 45.1131 31.7944 44.1615C31.6837 43.9465 31.5337 43.7538 31.3524 43.5935C27.2794 38.4294 19.7912 37.5449 14.6271 41.6179C13.8271 42.2489 13.111 42.9802 12.4972 43.7935C12.4185 43.8808 12.3462 43.9735 12.2812 44.0715C11.5924 45.0446 11.0529 46.1152 10.6811 47.2477L6.22085 56.1643C5.72482 57.1514 6.12285 58.3534 7.10991 58.8495C7.38392 58.9872 7.68619 59.06 7.99296 59.0625H13.1033C13.7561 59.7893 14.4949 60.4341 15.3034 60.9826C14.6616 61.4111 14.0628 61.9007 13.5153 62.4447L1.82858 74.2634C-0.609319 76.7011 -0.609569 80.6536 1.82808 83.0915C2.9989 84.2623 4.587 84.9201 6.24285 84.9201C7.72495 84.9148 9.15778 84.3873 10.2891 83.43L6.05884 100.431C5.78383 101.501 6.42812 102.591 7.49793 102.866C7.65969 102.908 7.82595 102.929 7.99296 102.929H11.9932V108.93C11.9912 112.235 14.6686 114.916 17.9738 114.918C19.4594 114.919 20.8925 114.367 21.9938 113.37C24.444 115.588 28.2285 115.4 30.4466 112.95C31.4437 111.848 31.9954 110.415 31.9944 108.93V102.929H35.9947C37.0993 102.93 37.9956 102.035 37.9963 100.931C37.9963 100.767 37.9766 100.604 37.9368 100.445L33.0025 80.5978L35.7627 82.0239C36.9512 82.647 38.2793 82.9567 39.6209 82.924C39.7497 82.932 39.8787 82.9287 40.0069 82.914C40.0949 82.914 40.1869 82.928 40.2369 82.928C41.8926 82.9232 43.4796 82.2657 44.6532 81.0979L47.9954 77.7556V108.93C47.9859 112.231 50.6546 114.916 53.9563 114.925C55.4499 114.929 56.891 114.375 57.996 113.37C60.4462 115.588 64.2307 115.4 66.4488 112.95C67.4459 111.848 67.9977 110.415 67.9967 108.93V77.7556L74.3971 84.1561C77.4057 87.2582 81.9998 88.2166 85.9978 86.5762V108.93C85.9883 112.231 88.6569 114.916 91.9586 114.925C93.4522 114.929 94.8933 114.375 95.9984 113.37C98.4485 115.588 102.233 115.4 104.451 112.95C105.448 111.848 106 110.415 105.999 108.93V87.5623L109.341 90.7125C111.78 93.1504 115.734 93.1494 118.172 90.7102C119.342 89.5399 119.999 87.953 120 86.2982C120.005 84.6416 119.346 83.052 118.172 81.8839ZM95.9984 53.0621C99.3123 53.0621 101.999 55.7485 101.999 59.0625C101.999 62.3764 99.3123 65.0629 95.9984 65.0629C92.6844 65.0629 89.998 62.3764 89.998 59.0625C89.998 55.7485 92.6844 53.0621 95.9984 53.0621ZM49.9956 47.0617C49.9956 42.6432 53.5775 39.0612 57.996 39.0612C62.4146 39.0612 65.9965 42.6432 65.9965 47.0617C65.9965 51.4803 62.4146 55.0622 57.996 55.0622C53.5775 55.0622 49.9956 51.4803 49.9956 47.0617ZM14.0413 55.0622H11.2412L14.3134 48.9098C14.3586 48.8193 14.3974 48.7258 14.4294 48.6298C14.6789 47.8335 15.0514 47.081 15.5334 46.3997C15.5694 46.3577 15.6074 46.3137 15.6414 46.2677C18.2408 42.755 23.1957 42.0147 26.7086 44.6141C27.3387 45.0804 27.8959 45.6376 28.3622 46.2677C28.3942 46.3117 28.4302 46.3537 28.4662 46.3957C28.951 47.0772 29.325 47.8313 29.5743 48.6298C29.6063 48.7258 29.645 48.8193 29.6903 48.9098L32.7665 55.0622H29.9663C29.3368 55.0622 28.744 55.3587 28.3662 55.8623C26.9871 57.6934 24.8808 58.8355 22.5939 58.9925C22.1838 58.9725 21.7798 58.9685 21.3698 58.9925C19.0986 58.8227 17.011 57.6819 15.6414 55.8623C15.2637 55.3587 14.6709 55.0622 14.0413 55.0622ZM115.347 87.883C114.927 88.3033 114.358 88.5396 113.763 88.5403C113.15 88.5343 112.564 88.2841 112.135 87.8443L105.379 81.4639C104.579 80.7016 103.313 80.7318 102.551 81.5314C102.193 81.9074 101.994 82.4084 101.999 82.928V108.93C101.999 110.034 101.103 110.93 99.9984 110.93C98.8938 110.93 97.9983 110.034 97.9983 108.93V93.9647C97.9983 92.8601 97.1027 91.9645 95.9981 91.9645C94.8936 91.9645 93.998 92.8601 93.998 93.9647V108.93C93.998 110.034 93.1025 110.93 91.9979 110.93C90.8933 110.93 89.9978 110.034 89.9978 108.93V82.928C89.9983 81.8234 89.1032 80.9276 87.9984 80.9271C87.4881 80.9268 86.9968 81.1219 86.6256 81.4719C84.0396 84.0255 79.8734 83.9995 77.3197 81.4136C77.2877 81.3814 77.2562 81.3486 77.225 81.3159L67.4244 71.5153C66.6511 70.7265 65.3848 70.7142 64.596 71.4875C64.2094 71.8665 63.9932 72.3861 63.9962 72.9273V108.93C63.9962 110.034 63.1006 110.93 61.996 110.93C60.8915 110.93 59.9959 110.034 59.9959 108.93V84.9281C59.9959 83.8235 59.1004 82.928 57.9958 82.928C56.8912 82.928 55.9957 83.8235 55.9957 84.9281V108.93C55.9957 110.034 55.1001 110.93 53.9955 110.93C52.891 110.93 51.9954 110.034 51.9954 108.93V72.9273C51.9952 71.8228 51.0996 70.9275 49.9948 70.9277C49.4645 70.9277 48.9562 71.1385 48.5812 71.5133L41.8308 78.2637C41.445 78.6537 40.93 78.889 40.3827 78.9257C40.3307 78.9257 40.1827 78.9017 40.1227 78.8977C40.0627 78.8937 40.0187 78.8977 39.9687 78.8977C39.8754 78.8907 39.7819 78.8907 39.6887 78.8977C39.6209 78.8977 39.5534 78.9077 39.4887 78.9277C38.8359 78.9267 38.1928 78.7705 37.6125 78.4717L30.9261 75.0135C29.9451 74.5059 28.7382 74.89 28.2307 75.871C28.0077 76.3023 27.9489 76.8001 28.066 77.2716L33.4503 98.929H29.9943C28.8897 98.929 27.9942 99.8245 27.9942 100.929V108.93C27.9942 110.034 27.0986 110.93 25.9941 110.93C24.8895 110.93 23.9939 110.034 23.9939 108.93V100.929C23.9939 99.8245 23.0984 98.929 21.9938 98.929C20.8893 98.929 19.9937 99.8245 19.9937 100.929V108.93C19.9937 110.034 19.0981 110.93 17.9936 110.93C16.889 110.93 15.9935 110.034 15.9935 108.93V100.929C15.9935 99.8245 15.0979 98.929 13.9933 98.929H10.5591L15.9435 77.2636C16.2087 76.1913 15.5547 75.107 14.4824 74.8415C13.7921 74.6707 13.0628 74.8792 12.5672 75.3893L7.82895 80.2636C6.95815 81.1439 5.53856 81.1516 4.65826 80.2811C4.23223 79.8595 3.99246 79.285 3.99296 78.6855C3.98946 78.0844 4.22898 77.5074 4.65701 77.0854L16.3537 65.2626C17.6353 63.993 19.3119 63.1992 21.106 63.0125C21.404 63.0345 21.7061 63.0605 22.0021 63.0605C22.2981 63.0605 22.6021 63.0345 22.8981 63.0125C24.6922 63.1992 26.3688 63.993 27.6504 65.2626C27.7269 65.3401 27.8099 65.4111 27.8984 65.4746L38.3831 73.0031C39.1791 73.5736 40.2712 73.4839 40.9632 72.7911L52.3639 61.3904C55.4864 58.2777 60.5382 58.2777 63.6606 61.3904L76.9975 74.7512C79.7524 77.5374 84.2342 77.5951 87.0601 74.8812L90.7323 71.395C93.893 68.3766 98.8683 68.3766 102.029 71.395L115.346 84.7118C116.222 85.5874 116.222 87.007 115.347 87.883Z" fill="#62487C" fill-opacity="0.7"/>
</svg>
