<svg width="86" height="122" viewBox="0 0 86 122" fill="none" xmlns="http://www.w3.org/2000/svg">
<path d="M75.5067 -0.238281H10.5978C4.94005 -0.231765 0.355561 4.35272 0.349045 10.0105V111.523C0.355561 117.18 4.94005 121.765 10.5978 121.771H75.5067C81.1645 121.765 85.7489 117.18 85.7555 111.523V10.0105C85.7489 4.35272 81.1645 -0.231765 75.5067 -0.238281ZM81.6885 111.523C81.6857 114.935 78.9192 117.701 75.5067 117.705H10.5978C7.18528 117.701 4.41877 114.935 4.41597 111.523V10.0105C4.41877 6.59796 7.18528 3.83237 10.5978 3.82865H75.5067C78.9192 3.83237 81.6857 6.59796 81.6885 10.0105V111.523Z" fill="#62487C" fill-opacity="0.7"/>
<path d="M25.6414 55.9267C26.3219 56.3884 27.2137 56.3959 27.9006 55.9444L33.4113 52.3215L37.0352 57.8322C37.6533 58.7696 38.9146 59.0283 39.8529 58.4093C40.3016 58.1133 40.6153 57.6516 40.7242 57.1238L43.3957 44.1895L46.0664 57.1238C46.2926 58.2241 47.3677 58.9325 48.4671 58.7063C48.9967 58.5974 49.4603 58.2827 49.7572 57.8322L53.3829 52.3215L58.8918 55.9444C59.8291 56.5625 61.0904 56.3019 61.7076 55.3645C62.0045 54.913 62.1097 54.3629 62.0008 53.8341L57.4368 31.7383C61.6369 23.7962 58.6032 13.9524 50.6611 9.75233C42.719 5.55228 32.8752 8.58596 28.6751 16.5281C25.9924 21.6012 26.1813 27.7123 29.1713 32.6105L24.7934 53.8341C24.6277 54.6384 24.9619 55.4641 25.6414 55.9267ZM53.9172 47.805C52.9789 47.1878 51.7185 47.4475 51.1014 48.3868L49.0675 51.493L46.6966 40.0081C49.4994 39.3621 52.0807 37.9825 54.1751 36.01L57.0347 49.8482L53.9172 47.805ZM43.0522 11.9622C49.7907 11.9622 55.253 17.4245 55.253 24.163C55.253 30.9015 49.7907 36.3647 43.0522 36.3647C36.3138 36.3647 30.8515 30.9015 30.8515 24.163C30.858 17.4273 36.3165 11.9687 43.0522 11.9622ZM32.5186 36.5369C34.6782 38.3819 37.2846 39.6264 40.0772 40.1468L37.7352 51.493L35.691 48.3868C35.0748 47.454 33.8209 47.1943 32.8845 47.805L29.7782 49.838L32.5186 36.5369Z" fill="#62487C" fill-opacity="0.7"/>
<path d="M16.6168 66.8677H69.4878V70.9346H16.6168V66.8677Z" fill="#62487C" fill-opacity="0.7"/>
<path d="M16.6168 81.1006H69.4878V85.1676H16.6168V81.1006Z" fill="#62487C" fill-opacity="0.7"/>
<path d="M16.6168 97.3684H69.4878V101.435H16.6168V97.3684Z" fill="#62487C" fill-opacity="0.7"/>
</svg>
