<svg width="122" height="82" viewBox="0 0 122 82" fill="none" xmlns="http://www.w3.org/2000/svg">
<path d="M49.5371 39.5609C48.7485 38.7993 47.4981 38.7993 46.7092 39.5609C44.325 41.9454 40.4591 41.9459 38.0747 39.5617C38.0744 39.5614 38.0741 39.5612 38.0739 39.5609C37.2654 38.7799 35.9771 38.8023 35.1961 39.6108C34.4345 40.3994 34.4345 41.6498 35.1961 42.4387C39.1729 46.4058 45.6102 46.4058 49.587 42.4387C50.368 41.6302 50.3456 40.3419 49.5371 39.5609Z" fill="#62487C" fill-opacity="0.7"/>
<path d="M121.405 25.3456L96.9399 0.8927C96.5583 0.511101 96.0408 0.296388 95.501 0.296388C94.9578 0.299186 94.4384 0.518987 94.058 0.906946L77.9311 17.1885C77.1407 17.9825 77.1407 19.2662 77.9311 20.0602L79.1808 21.3098L75.8532 24.6353H70.4498C67.1243 24.5618 63.8267 25.2583 60.8152 26.6705C57.9483 25.329 54.8218 24.6343 51.6568 24.6353H46.2574L42.9299 21.3098L44.1795 20.0602C44.9727 19.2657 44.9727 17.9789 44.1795 17.1844L27.9407 0.902876C27.5608 0.517461 27.0429 0.299186 26.5018 0.296388C25.9614 0.295879 25.443 0.510592 25.0609 0.8927L0.597813 25.3557C-0.197948 26.1495 -0.199728 27.4383 0.594252 28.234C0.595524 28.2353 0.596796 28.2366 0.597813 28.2376L16.8794 44.4764C17.6739 45.2696 18.9606 45.2696 19.7551 44.4764L21.3426 42.8889L23.3777 44.9241C24.2369 49.5328 26.472 53.7732 29.7886 57.0865L35.1636 62.7606C35.3526 62.9583 35.5795 63.1152 35.8311 63.2226C35.7825 63.5139 35.7553 63.8085 35.7497 64.1038C35.7759 67.3352 38.3092 69.9896 41.5358 70.1667C41.7128 73.2708 44.1909 75.7482 47.2954 75.9242C47.4765 79.1465 50.1271 81.6749 53.3541 81.7042H53.3786C54.9861 81.7093 56.5288 81.071 57.6626 79.9315L59.5839 78.0103C60.5524 80.2386 62.743 81.6866 65.1725 81.7042H65.1969C66.805 81.7095 68.3484 81.0712 69.4831 79.9315L92.2955 57.119C95.6312 53.795 97.8796 49.5372 98.743 44.9079L100.778 42.8727L102.366 44.4601C102.743 44.845 103.257 45.0646 103.796 45.0707C104.339 45.0674 104.858 44.8476 105.237 44.4601L121.405 28.2213C122.198 27.4268 122.198 26.1401 121.405 25.3456ZM18.3183 40.1597L4.9165 26.7946L26.4997 5.22156L39.8649 18.6131L18.3183 40.1597ZM32.6989 54.2413C29.8097 51.3625 27.9096 47.6401 27.2731 43.6114C27.2059 43.1876 27.0065 42.7958 26.7033 42.4921L24.2203 40.0091L40.0501 24.1794L43.9719 28.1012C44.3535 28.4828 44.8709 28.6975 45.4108 28.6975H51.6629C56.3716 28.6914 60.8856 30.575 64.1936 33.9259L72.6885 41.6108C73.0635 41.9848 73.2723 42.4936 73.2685 43.0233C73.2629 44.1469 72.357 45.0585 71.2333 45.0707C70.6897 45.0707 70.1689 44.8504 69.7904 44.4601L62.5105 37.5282L62.4799 37.4977C62.3879 37.4283 62.2896 37.367 62.1869 37.3145C62.0709 37.2242 61.9462 37.1459 61.8144 37.0805C61.7066 37.0502 61.5962 37.0291 61.4847 37.0174C61.3364 36.9719 61.1835 36.9424 61.0288 36.9299C60.9159 36.9426 60.8045 36.9642 60.6951 36.995C60.5496 37.0108 60.4063 37.0421 60.2677 37.0886C60.1606 37.1482 60.0586 37.2161 59.9624 37.2922C59.8377 37.3575 59.7205 37.4359 59.6124 37.5262L37.7381 59.5592L32.6989 54.2413ZM95.4114 42.4921C95.1082 42.7958 94.9087 43.1876 94.8416 43.6114C94.2063 47.6396 92.3078 51.362 89.4198 54.2413L66.6053 77.0538C66.2313 77.4262 65.7248 77.6348 65.1969 77.6338C64.0781 77.6216 63.1739 76.7174 63.1617 75.5986C63.1561 75.0687 63.3655 74.5591 63.7418 74.1862L65.0687 72.8592C65.2824 72.6394 65.4424 72.3733 65.5368 72.0818L70.6533 66.9653C71.4618 66.1843 71.4842 64.896 70.7031 64.0875C69.9221 63.2791 68.6339 63.2567 67.8254 64.0377C67.8086 64.054 67.7918 64.0707 67.7755 64.0875L54.8012 77.0619C54.4277 77.4341 53.9219 77.6427 53.3948 77.6419C52.2755 77.631 51.3706 76.7261 51.3596 75.6067C51.351 75.073 51.5596 74.5589 51.9376 74.1821L64.914 61.2077C65.695 60.3993 65.6727 59.111 64.8642 58.33C64.0755 57.568 62.8249 57.568 62.0363 58.33L49.0599 71.3043C48.6859 71.6768 48.1794 71.8854 47.6515 71.8844C46.5327 71.8722 45.6285 70.968 45.6163 69.8492C45.6084 69.3152 45.8178 68.801 46.1964 68.4245L59.1239 55.4502C59.9047 54.6417 59.8825 53.3534 59.074 52.5724C58.2854 51.8107 57.035 51.8107 56.2461 52.5724L43.2718 65.5488C42.8988 65.9212 42.3926 66.1293 41.8655 66.1268C40.7461 66.1159 39.8412 65.211 39.8303 64.0916C39.8236 63.5569 40.0353 63.0425 40.4164 62.667L61.098 41.8144L66.9329 47.3684C68.0671 48.5086 69.6108 49.1472 71.2191 49.1411H71.2435C74.6028 49.1144 77.3178 46.3948 77.3389 43.0355C77.3442 41.386 76.6777 39.8054 75.493 38.6578L67.0001 30.979C66.4201 30.4068 65.8085 29.8673 65.1684 29.363C66.8889 28.9084 68.6621 28.6848 70.4416 28.6975H76.6937C77.2336 28.6975 77.751 28.4828 78.1326 28.1012L82.0544 24.1794L97.8944 40.0091L95.4114 42.4921ZM103.796 40.1536L82.2458 18.6131L95.5071 5.2236L117.08 26.7967L103.796 40.1536Z" fill="#62487C" fill-opacity="0.7"/>
</svg>
