<svg width="122" height="86" viewBox="0 0 122 86" fill="none" xmlns="http://www.w3.org/2000/svg">
<path d="M12.1998 63.4475H16.2664V67.5141H12.1998V63.4475Z" fill="#62487C" fill-opacity="0.7"/>
<path d="M119.966 16.6809H109.747C111.093 14.931 111.826 12.7874 111.833 10.5805C111.85 4.98279 107.324 0.431248 101.727 0.415425C98.493 0.406117 95.4493 1.93912 93.5329 4.54346C90.2565 0.0105327 83.9253 -1.00868 79.3923 2.26769C74.8585 5.54405 73.8393 11.8753 77.1166 16.4091C77.1827 16.5003 77.2497 16.5906 77.3195 16.6809H67.1004C65.9769 16.6809 65.0666 17.5912 65.0666 18.7137V44.3057L58.3705 37.6096C57.9899 37.228 57.4723 37.0139 56.9334 37.0139H40.667C40.1271 37.0139 39.6105 37.228 39.2289 37.6096L35.758 41.0805H28.4672V37.0139C28.4672 35.8905 27.5559 34.9802 26.4334 34.9802H2.03378C0.910324 34.9802 1.52588e-05 35.8914 1.52588e-05 37.0139V73.6143C1.52588e-05 74.7368 0.910324 75.6471 2.03378 75.6471H26.4334C27.5559 75.6471 28.4672 74.7368 28.4672 73.6143V69.5477H43.8912L59.5629 85.2184C59.9436 85.6 60.4611 85.8141 61 85.8141H99.6332C104.125 85.8141 107.766 82.1729 107.766 77.6809C107.758 76.2484 107.368 74.8448 106.636 73.6143H119.967C121.09 73.6143 122 72.704 122 71.5805V18.7137C122 17.5912 121.09 16.6809 119.966 16.6809ZM24.3996 71.5805H4.06662V39.0477H24.3996V71.5805ZM95.5666 10.5805C95.5666 7.21202 98.2975 4.48017 101.667 4.48017C105.036 4.48017 107.766 7.21202 107.766 10.5805C107.766 13.95 105.036 16.6809 101.667 16.6809H95.5666V10.5805ZM93.5329 20.7475H97.5995V32.9473H89.4662V20.7475H93.5329ZM97.5995 37.0139V69.5477H89.4662V37.0139H97.5995ZM85.3996 4.48017C88.7691 4.48017 91.5 7.21202 91.5 10.5805V16.6809H85.3996C82.0311 16.6809 79.3002 13.95 79.3002 10.5805C79.3002 7.21202 82.0311 4.48017 85.3996 4.48017ZM69.1332 20.7475H85.3996V32.9473H69.1332V20.7475ZM69.1332 37.0139H85.3996V69.5477H74.0422L73.3422 68.8477C74.5979 68.4968 75.7427 67.8332 76.6707 66.9182C79.707 63.8764 79.707 58.9516 76.6707 55.9098L69.1332 48.3723V37.0139ZM99.6332 81.7475H61.8414L46.1707 66.0768C45.79 65.6952 45.2725 65.4811 44.7336 65.4802H28.4662V45.1471H36.6004C37.1393 45.1471 37.6559 44.9331 38.0375 44.5514L41.5084 41.0805H56.091L73.7955 58.785C75.2168 60.2678 75.1656 62.6226 73.6829 64.043C72.2439 65.4206 69.9756 65.4206 68.5375 64.043L60.4043 55.9098L57.5291 58.785L65.6623 66.9182L71.7627 73.0177C72.1434 73.3993 72.6609 73.6134 73.1998 73.6143H99.6332C101.879 73.6143 103.7 75.4349 103.7 77.6809C103.7 79.9269 101.879 81.7475 99.6332 81.7475ZM117.933 69.5477H101.667V37.0139H117.933V69.5477ZM117.933 32.9473H101.667V20.7475H117.933V32.9473Z" fill="#62487C" fill-opacity="0.7"/>
</svg>
