<svg width="50" height="69" viewBox="0 0 50 69" fill="none" xmlns="http://www.w3.org/2000/svg">
<path fill-rule="evenodd" clip-rule="evenodd" d="M50 0H0V68.0556L25 57.6389L50 68.0556V0ZM17.9997 39.5002C17.9997 38.1195 16.8805 37.0004 15.4999 37.0004C14.1192 37.0004 13 38.1202 13 39.5002C13 40.8808 14.1192 42 15.4999 42C16.8805 42 17.9997 40.8808 17.9997 39.5002ZM35.0001 39.5002C35.0001 38.1195 33.8809 37.0004 32.5003 37.0004C31.1196 37.0004 30.0005 38.1202 30.0005 39.5002C30.0005 40.8808 31.1196 42 32.5003 42C33.8809 42 35.0001 40.8808 35.0001 39.5002ZM35.9652 39.0006H40.0004L39.5008 28.0002C39.5008 26.8956 38.6052 26 37.5006 26H12.0002C10.8956 26 10 26.8956 10 28.0002V39.0006H12.035C12.2781 37.3041 13.7365 36.0006 15.4999 36.0006C17.2633 36.0006 18.7222 37.3041 18.9647 39.0006H29.0354C29.2786 37.3041 30.7369 36.0006 32.5003 36.0006C34.2637 36.0006 35.7227 37.3041 35.9652 39.0006ZM37.0004 28.0002H38.7505L39.0006 35.0001H37.0004V28.0002ZM35.0001 28.0009V32.0007H29.9998V28.0009H35.0001ZM23.9998 28.0002H29V32.0001H23.9998V28.0002ZM17.9997 28.0002H23V32.0001H17.9997V28.0002ZM12.0002 28.0002H16.9999L17.0005 32.0001H12.0002V28.0002Z" fill="white" fill-opacity="0.8"/>
<path d="M15.4999 37.0004C16.8805 37.0004 17.9997 38.1195 17.9997 39.5002C17.9997 40.8808 16.8805 42 15.4999 42C14.1192 42 13 40.8808 13 39.5002C13 38.1202 14.1192 37.0004 15.4999 37.0004ZM32.5003 37.0004C33.8809 37.0004 35.0001 38.1195 35.0001 39.5002C35.0001 40.8808 33.8809 42 32.5003 42C31.1196 42 30.0005 40.8808 30.0005 39.5002C30.0005 38.1202 31.1196 37.0004 32.5003 37.0004ZM40.0004 39.0006H35.9652C35.7227 37.3041 34.2637 36.0006 32.5003 36.0006C30.7369 36.0006 29.2786 37.3041 29.0354 39.0006H18.9647C18.7222 37.3041 17.2633 36.0006 15.4999 36.0006C13.7365 36.0006 12.2781 37.3041 12.035 39.0006H10V28.0002C10 26.8956 10.8956 26 12.0002 26H37.5006C38.6052 26 39.5008 26.8956 39.5008 28.0002L40.0004 39.0006ZM38.7505 28.0002H37.0004V35.0001H39.0006L38.7505 28.0002ZM35.0001 32.0007V28.0009H29.9998V32.0007H35.0001ZM29 28.0002H23.9998V32.0001H29V28.0002ZM23 28.0002H17.9997V32.0001H23V28.0002ZM16.9999 28.0002H12.0002V32.0001H17.0005L16.9999 28.0002Z" fill="#62487C"/>
</svg>
