<svg width="30" height="16" viewBox="0 0 30 16" fill="none" xmlns="http://www.w3.org/2000/svg">
<path d="M5.49986 11.0004C6.88051 11.0004 7.99968 12.1195 7.99968 13.5002C7.99968 14.8808 6.88051 16 5.49986 16C4.11921 16 3.00004 14.8808 3.00004 13.5002C3.00004 12.1202 4.11921 11.0004 5.49986 11.0004ZM22.5003 11.0004C23.8809 11.0004 25.0001 12.1195 25.0001 13.5002C25.0001 14.8808 23.8809 16 22.5003 16C21.1196 16 20.0005 14.8808 20.0005 13.5002C20.0005 12.1202 21.1196 11.0004 22.5003 11.0004ZM30.0004 13.0006H25.9652C25.7227 11.3041 24.2637 10.0006 22.5003 10.0006C20.7369 10.0006 19.2786 11.3041 19.0354 13.0006H8.96475C8.72222 11.3041 7.26325 10.0006 5.49986 10.0006C3.73647 10.0006 2.27813 11.3041 2.03497 13.0006H0V2.00024C0 0.895591 0.895591 0 2.00024 0H27.5006C28.6052 0 29.5008 0.895591 29.5008 2.00024L30.0004 13.0006ZM28.7505 2.00024H27.0004V9.00012H29.0006L28.7505 2.00024ZM25.0001 6.00071V2.00087H19.9998V6.00071H25.0001ZM19 2.00024H13.9998V6.00008H19V2.00024ZM13 2.00024H7.99968V6.00008H13V2.00024ZM6.99988 2.00024H2.00024V6.00008H7.00051L6.99988 2.00024Z" fill="#62487C"/>
</svg>
