<svg width="33" height="33" viewBox="0 0 33 33" fill="none" xmlns="http://www.w3.org/2000/svg">
<path d="M16.4946 0C21.0474 0 25.1695 1.85131 28.1618 4.83163C31.1421 7.82473 32.9934 11.9468 32.9934 16.4996C32.9934 21.0524 31.1421 25.1745 28.1618 28.1676C25.1687 31.1479 21.0474 32.9992 16.4946 32.9992C11.9419 32.9992 7.82055 31.1479 4.84024 28.1676C1.84714 25.1745 0.0078125 21.0532 0.0078125 16.4996C0.0078125 11.9468 1.84634 7.82473 4.83944 4.83163C7.82055 1.85131 11.9419 0 16.4946 0ZM24.9034 15.5991C25.398 15.5991 25.7911 16.005 25.7911 16.4996C25.7911 16.9942 25.398 17.4001 24.9034 17.4001H16.5202H16.4946C16.1646 17.4001 15.873 17.2099 15.7212 16.9439L15.7084 16.9311L15.6956 16.9055V16.8927L15.6828 16.8671L15.67 16.8416V16.8288L15.6573 16.8032L15.6445 16.7904V16.7649L15.6317 16.7393V16.7265L15.6189 16.701V16.6754V16.6626V16.6498L15.6061 16.637V16.6115V16.5859V16.5635V16.5507V16.5252V16.4996V5.75768C15.6061 5.26309 15.9992 4.86998 16.4938 4.86998C16.9884 4.86998 17.3943 5.26309 17.3943 5.75768V15.5991H24.9034ZM26.8938 6.10046C24.2307 3.43735 20.5528 1.80097 16.4946 1.80097C12.4364 1.80097 8.75859 3.43655 6.09549 6.10046C3.44516 8.76357 1.796 12.4414 1.796 16.4996C1.796 20.5578 3.44436 24.2356 6.09549 26.8995C8.75859 29.5627 12.4364 31.199 16.4946 31.199C20.5528 31.199 24.2307 29.5627 26.8938 26.8995C29.5569 24.2364 31.206 20.5586 31.206 16.4996C31.206 12.4414 29.5577 8.76357 26.8938 6.10046Z" fill="#62487C"/>
</svg>
