<svg width="22" height="22" viewBox="0 0 22 22" fill="none" xmlns="http://www.w3.org/2000/svg">
<path d="M9.55198 8.54167C10.4006 7.62118 10.8682 6.38646 10.8682 5.06459C10.8682 2.5478 9.07054 0 5.63408 0C4.03483 0 2.68566 0.5493 1.73224 1.58848C0.887707 2.50911 0.422729 3.74356 0.422729 5.06459C0.422729 7.58166 2.21279 10.1293 5.63408 10.1293C7.23931 10.1294 8.59438 9.58051 9.55198 8.54167ZM5.63408 2.35487C7.51698 2.35487 8.37448 3.76044 8.37448 5.06638C8.37448 5.77678 8.13544 6.43441 7.70099 6.91792C7.21632 7.45795 6.51196 7.74351 5.66461 7.74351C3.7341 7.74351 2.85465 6.33808 2.85465 5.03228C2.85465 3.69978 3.71421 2.35487 5.63408 2.35487Z" fill="#FF6600"/>
<path d="M18.1321 1.95377C17.8207 1.95939 17.3955 2.15356 17.1872 2.38512L1.72807 19.573C1.51984 19.8047 1.66735 20.1295 1.97877 20.1295H4.00211C4.31354 20.1295 4.73831 19.9396 4.9462 19.7077L20.3098 2.52331C20.5176 2.29119 20.5038 1.91356 19.9892 1.9137L18.1321 1.95377Z" fill="#FF6600"/>
<path d="M16.4425 12.0633C14.8741 12.0633 13.5505 12.6024 12.6151 13.6218C11.7867 14.5246 11.3303 15.7358 11.3303 17.0317C11.3303 19.5006 13.0864 22 16.4425 22C18.0176 22 19.3466 21.4614 20.2861 20.4424C21.1187 19.5394 21.5772 18.3281 21.5772 17.0317C21.5772 14.5628 19.8135 12.0633 16.4425 12.0633ZM16.4728 19.72C14.5946 19.72 13.7388 18.3096 13.7388 16.9997C13.7388 16.2864 13.9777 15.6263 14.4118 15.1409C14.8957 14.5993 15.5979 14.3131 16.4425 14.3131C18.3209 14.3131 19.1763 15.7232 19.1763 17.0335C19.1763 17.7467 18.9373 18.4069 18.5035 18.8923C18.0195 19.4338 17.3173 19.72 16.4728 19.72Z" fill="#FF6600"/>
</svg>
