<svg width="22" height="22" viewBox="0 0 22 22" fill="none" xmlns="http://www.w3.org/2000/svg">
<path d="M20.0664 2.62109H1.93356C1.63591 2.62109 1.35726 2.69427 1.10516 2.81488L10.957 12.6667L13.1651 10.5446C13.1651 10.5446 13.1653 10.5444 13.1653 10.5443C13.1654 10.5442 13.1655 10.5441 13.1655 10.5441L20.8951 2.81505C20.6429 2.69436 20.3641 2.62109 20.0664 2.62109Z" fill="white"/>
<path d="M21.8065 3.72656L14.5326 11.0001L21.8062 18.2737C21.9268 18.0216 22 17.7429 22 17.4453V4.55466C22 4.25718 21.927 3.97857 21.8065 3.72656Z" fill="white"/>
<path d="M0.193789 3.72632C0.0731758 3.97842 0 4.25707 0 4.55471V17.4453C0 17.7428 0.0730898 18.0215 0.193617 18.2735L7.4675 11L0.193789 3.72632Z" fill="white"/>
<path d="M13.6212 11.9115L11.4128 14.0338C11.2869 14.1597 11.122 14.2227 10.9571 14.2227C10.7922 14.2227 10.6273 14.1597 10.5014 14.0338L8.37893 11.9114L1.10492 19.1849C1.35706 19.3056 1.63588 19.3789 1.93361 19.3789H20.0664C20.3641 19.3789 20.6427 19.3057 20.8948 19.1851L13.6212 11.9115Z" fill="white"/>
</svg>
