<svg width="50" height="69" viewBox="0 0 50 69" fill="none" xmlns="http://www.w3.org/2000/svg">
<path fill-rule="evenodd" clip-rule="evenodd" d="M50 0H0V68.0556L25 57.6389L50 68.0556V0ZM30.9995 27.7721C32.5919 29.9161 34.3967 32.3458 34.6944 36.2226C34.6944 36.2226 34.75 36.9795 34.75 37.2498C34.75 42.6159 30.3913 46.9838 25.0285 46.9992H25.0217C25.0164 47.0005 25.0101 47 25.0038 46.9995C25.0025 46.9994 25.0013 46.9993 25 46.9992C19.624 46.9992 15.25 42.6254 15.25 37.2498C15.25 37.0653 15.2505 36.8806 15.2616 36.6965C15.4203 31.1634 18.1477 29.7775 18.2636 29.7215C18.4196 29.6442 18.6005 29.6501 18.7545 29.7305C18.9068 29.8119 19.0115 29.9611 19.0364 30.1325C19.0417 30.1685 19.5421 33.4727 21.7511 33.9445C21.7601 32.5217 21.8241 30.3673 22.3081 28.451C23.0053 25.6984 25.0011 22.8136 27.3931 21.102C27.5575 20.9824 27.7749 20.9671 27.9559 21.0607C28.1363 21.1538 28.25 21.3395 28.25 21.5426C28.25 24.0712 29.5235 25.7853 30.9981 27.7702L30.9985 27.7708L30.9995 27.7721ZM21.75 42.4541C21.75 44.363 23.2078 45.9159 25 45.9159C26.7922 45.9159 28.25 44.3629 28.2501 42.4541C28.2501 42.3537 28.2432 42.2602 28.2364 42.1673L28.2363 42.1668C28.1226 40.5964 27.4746 39.6755 26.8478 38.7848C26.4098 38.1622 25.9612 37.5244 25.7311 36.7362C25.2137 37.3434 24.8054 38.1009 24.6345 38.8128C24.4425 39.6158 24.4266 40.5055 24.4266 41.2766C24.4266 41.576 24.1844 41.8183 23.8849 41.8183C22.9725 41.8183 22.4107 41.1978 22.0965 40.5229C21.9288 40.8884 21.7759 41.438 21.7542 42.243C21.7499 42.3163 21.75 42.3773 21.75 42.4368L21.75 42.4541Z" fill="white" fill-opacity="0.8"/>
<path d="M34.6944 36.2226C34.3966 32.345 32.5912 29.9151 30.9985 27.7708C29.5237 25.7857 28.25 24.0714 28.25 21.5426C28.25 21.3395 28.1363 21.1538 27.9559 21.0607C27.7749 20.9671 27.5575 20.9824 27.3931 21.102C25.0011 22.8136 23.0053 25.6984 22.3081 28.451C21.8241 30.3673 21.7601 32.5217 21.7511 33.9445C19.5421 33.4727 19.0417 30.1684 19.0364 30.1324C19.0115 29.9611 18.9068 29.8119 18.7545 29.7305C18.6005 29.6501 18.4196 29.6442 18.2636 29.7215C18.1477 29.7775 15.4203 31.1634 15.2616 36.6965C15.2505 36.8806 15.25 37.0653 15.25 37.2498C15.25 42.6254 19.624 46.9992 25 46.9992C25.0074 46.9997 25.0153 47.0008 25.0217 46.9992C25.0238 46.9992 25.0259 46.9992 25.0285 46.9992C30.3913 46.9838 34.75 42.6159 34.75 37.2498C34.75 36.9795 34.6944 36.2226 34.6944 36.2226ZM25 45.9159C23.2078 45.9159 21.75 44.363 21.75 42.4541C21.75 42.389 21.7495 42.3234 21.7542 42.243C21.7759 41.438 21.9288 40.8884 22.0965 40.5229C22.4107 41.1978 22.9725 41.8183 23.8849 41.8183C24.1844 41.8183 24.4266 41.576 24.4266 41.2766C24.4266 40.5055 24.4425 39.6158 24.6345 38.8128C24.8054 38.1009 25.2137 37.3434 25.7311 36.7362C25.9612 37.5244 26.4098 38.1622 26.8478 38.7848C27.4746 39.6755 28.1226 40.5964 28.2363 42.1668C28.2432 42.2599 28.2501 42.3536 28.2501 42.4541C28.25 44.3629 26.7922 45.9159 25 45.9159Z" fill="#FF6600"/>
</svg>
