<svg width="20" height="26" viewBox="0 0 20 26" fill="none" xmlns="http://www.w3.org/2000/svg">
<path d="M19.6944 15.2226C19.3966 11.345 17.5912 8.9151 15.9985 6.77081C14.5237 4.78567 13.25 3.0714 13.25 0.542594C13.25 0.339469 13.1363 0.153813 12.9559 0.0607312C12.7749 -0.0329095 12.5575 -0.0175735 12.3931 0.101966C10.0011 1.8136 8.00526 4.69843 7.30809 7.45098C6.82409 9.36731 6.76005 11.5217 6.75107 12.9445C4.54208 12.4727 4.04168 9.16845 4.0364 9.13245C4.01152 8.96106 3.90681 8.81191 3.75446 8.73046C3.60055 8.65007 3.41961 8.64423 3.26356 8.72147C3.14773 8.77754 0.42032 10.1634 0.261629 15.6965C0.250508 15.8806 0.25 16.0653 0.25 16.2498C0.25 21.6254 4.62404 25.9992 10 25.9992C10.0074 25.9997 10.0153 26.0008 10.0217 25.9992C10.0238 25.9992 10.0259 25.9992 10.0285 25.9992C15.3913 25.9838 19.75 21.6159 19.75 16.2498C19.75 15.9795 19.6944 15.2226 19.6944 15.2226ZM10 24.9159C8.20783 24.9159 6.75 23.363 6.75 21.4541C6.75 21.389 6.74949 21.3234 6.75421 21.243C6.7759 20.438 6.9288 19.8884 7.09648 19.5229C7.41071 20.1978 7.97246 20.8183 8.88495 20.8183C9.18435 20.8183 9.42663 20.576 9.42663 20.2766C9.42663 19.5055 9.44252 18.6158 9.63453 17.8128C9.80541 17.1009 10.2137 16.3434 10.7311 15.7362C10.9612 16.5244 11.4098 17.1622 11.8478 17.7848C12.4746 18.6755 13.1226 19.5964 13.2363 21.1668C13.2432 21.2599 13.2501 21.3536 13.2501 21.4541C13.25 23.3629 11.7922 24.9159 10 24.9159Z" fill="#FF6600"/>
</svg>
