<svg width="50" height="69" viewBox="0 0 50 69" fill="none" xmlns="http://www.w3.org/2000/svg">
<path fill-rule="evenodd" clip-rule="evenodd" d="M50 0H0V68.0556L25 57.6389L50 68.0556V0ZM33.0146 22.7118C33.9128 21.7759 35.4047 21.7606 36.322 22.6778C37.2392 23.5951 37.2239 25.0869 36.2879 25.9852L31.1647 30.9016L35.1353 42.8998L32.6166 45.4185L26.4588 35.4177L21.1857 40.4781L21.7185 43.7233L19.442 45.9998L17.7709 41.2288L13 39.5578L15.2765 37.2813L18.5217 37.8141L23.5821 32.5409L13.5813 26.3832L16.0999 23.8645L28.0981 27.8351L33.0146 22.7118Z" fill="white" fill-opacity="0.8"/>
<path d="M36.322 22.6778C35.4047 21.7606 33.9128 21.7759 33.0146 22.7118L28.0981 27.8351L16.0999 23.8645L13.5812 26.3832L23.5821 32.5409L18.5217 37.8141L15.2765 37.2813L13 39.5578L17.7709 41.2288L19.442 45.9998L21.7185 43.7233L21.1857 40.4781L26.4588 35.4177L32.6166 45.4185L35.1353 42.8998L31.1647 30.9017L36.2879 25.9852C37.2239 25.087 37.2392 23.5951 36.322 22.6778Z" fill="#62487C"/>
</svg>
