<svg width="30" height="40" viewBox="0 0 30 40" fill="none" xmlns="http://www.w3.org/2000/svg">
<path d="M29.9145 23.4195C29.4563 17.4539 26.6788 13.7156 24.2285 10.4167C21.9596 7.36259 20 4.72524 20 0.834776C20 0.522276 19.825 0.236651 19.5475 0.0934478C19.2691 -0.0506147 18.9347 -0.027021 18.6816 0.156885C15.0016 2.79017 11.9312 7.22837 10.8586 11.4631C10.114 14.4113 10.0155 17.7256 10.0016 19.9146C6.6032 19.1888 5.83336 14.1053 5.82523 14.0499C5.78695 13.7863 5.62586 13.5568 5.39148 13.4315C5.15469 13.3078 4.87633 13.2988 4.63625 13.4177C4.45805 13.5039 0.262031 15.6359 0.0178903 24.1485C0.000780959 24.4317 0 24.7158 0 24.9998C0 33.2699 6.7293 39.9988 15 39.9988C15.0114 39.9995 15.0236 40.0012 15.0334 39.9988C15.0366 39.9988 15.0398 39.9988 15.0439 39.9988C23.2943 39.9751 30 33.2552 30 24.9998C30 24.5839 29.9145 23.4195 29.9145 23.4195ZM15 38.3322C12.2428 38.3322 10 35.9431 10 33.0063C10 32.9062 9.99922 32.8052 10.0065 32.6816C10.0398 31.4431 10.2751 30.5976 10.533 30.0352C11.0165 31.0736 11.8807 32.0281 13.2845 32.0281C13.7452 32.0281 14.1179 31.6554 14.1179 31.1949C14.1179 30.0084 14.1423 28.6397 14.4377 27.4044C14.7006 26.3091 15.3288 25.1438 16.1248 24.2096C16.4788 25.4221 17.1689 26.4034 17.8427 27.3613C18.8071 28.7316 19.804 30.1484 19.979 32.5644C19.9895 32.7076 20.0002 32.8517 20.0002 33.0063C20 35.943 17.7572 38.3322 15 38.3322Z" fill="#FF6600"/>
</svg>
