<svg width="15" height="19" viewBox="0 0 15 19" fill="none" xmlns="http://www.w3.org/2000/svg">
<path d="M13.7658 7.67299H13.3955V5.94027C13.3955 2.73547 10.8523 0.0583194 7.6736 0.00117107C7.58675 -0.000390358 7.41319 -0.000390358 7.32638 0.00117107C4.14758 0.0583194 1.6044 2.73547 1.6044 5.94027V7.67299H1.23414C0.663596 7.67299 0.198212 8.26173 0.198212 8.98885V17.6795C0.198212 18.4058 0.663596 19 1.23418 19H13.7658C14.3363 19 14.8017 18.4058 14.8017 17.6795V8.98885C14.8017 8.26177 14.3363 7.67299 13.7658 7.67299ZM8.67401 13.3253V15.9513C8.67401 16.252 8.42227 16.5065 8.12134 16.5065H6.87868C6.57771 16.5065 6.32597 16.252 6.32597 15.9513V13.3253C6.0341 13.038 5.86418 12.6408 5.86418 12.2013C5.86418 11.3685 6.50792 10.6529 7.32642 10.6198C7.41316 10.6163 7.5869 10.6163 7.67364 10.6198C8.49214 10.6529 9.13588 11.3685 9.13588 12.2013C9.1358 12.6408 8.96588 13.038 8.67401 13.3253ZM10.9554 7.67299H7.6736H7.32638H4.04456V5.94027C4.04456 4.03122 5.596 2.45273 7.49997 2.45273C9.40394 2.45273 10.9555 4.03122 10.9555 5.94027V7.67299H10.9554Z" fill="white" fill-opacity="0.5"/>
</svg>
