<svg width="16" height="20" viewBox="0 0 16 20" fill="none" xmlns="http://www.w3.org/2000/svg">
<path d="M7.99981 0C3.94017 0 0.637024 3.30314 0.637024 7.3632C0.637024 8.42222 0.853781 9.43334 1.28095 10.3687C3.12185 14.3971 6.65137 18.6501 7.68951 19.8575C7.76729 19.9478 7.88069 19.9998 8.00001 19.9998C8.11934 19.9998 8.23274 19.9478 8.31052 19.8575C9.34825 18.6503 12.8778 14.3975 14.7193 10.3687C15.1467 9.43334 15.3632 8.42222 15.3632 7.3632C15.3628 3.30314 12.0597 0 7.99981 0ZM7.99981 11.1877C5.89098 11.1877 4.17514 9.47182 4.17514 7.36299C4.17514 5.25396 5.89098 3.53812 7.99981 3.53812C10.1086 3.53812 11.8245 5.25396 11.8245 7.36299C11.8247 9.47182 10.1088 11.1877 7.99981 11.1877Z" fill="white" fill-opacity="0.5"/>
</svg>
