<svg width="24" height="35" viewBox="0 0 24 35" fill="none" xmlns="http://www.w3.org/2000/svg">
<path d="M11.6667 0C5.2338 0 0 5.2338 0 11.6667C0 13.5978 0.482822 15.5126 1.40068 17.2109L11.0287 34.624C11.1569 34.8562 11.4011 35 11.6667 35C11.9323 35 12.1765 34.8562 12.3047 34.624L21.9362 17.2052C22.8506 15.5126 23.3334 13.5978 23.3334 11.6666C23.3334 5.2338 18.0996 0 11.6667 0ZM20.6566 16.5052L11.6667 32.7641L2.6803 16.5117C1.88063 15.032 1.45838 13.3565 1.45838 11.6667C1.45838 6.03771 6.03777 1.45838 11.6667 1.45838C17.2956 1.45838 21.875 6.03777 21.875 11.6667C21.875 13.3564 21.4527 15.032 20.6566 16.5052Z" fill="#62487C"/>
<path d="M11.6673 5.83331C8.45085 5.83331 5.83398 8.45018 5.83398 11.6666C5.83398 14.8831 8.45085 17.5 11.6673 17.5C14.8837 17.5 17.5006 14.8831 17.5006 11.6667C17.5006 8.45025 14.8837 5.83331 11.6673 5.83331ZM11.6673 16.0417C9.25475 16.0417 7.29229 14.0792 7.29229 11.6667C7.29229 9.25415 9.25475 7.29169 11.6673 7.29169C14.0798 7.29169 16.0423 9.25415 16.0423 11.6667C16.0423 14.0792 14.0798 16.0417 11.6673 16.0417Z" fill="#62487C"/>
</svg>
