<svg width="50" height="69" viewBox="0 0 50 69" fill="none" xmlns="http://www.w3.org/2000/svg">
<path fill-rule="evenodd" clip-rule="evenodd" d="M50 0H0V68.0556L25 57.6389L50 68.0556V0ZM24.8682 28.0646C24.8682 29.3865 24.4006 30.6212 23.552 31.5417C22.5943 32.5805 21.2393 33.1294 19.6341 33.1293C16.2128 33.1293 14.4227 30.5817 14.4227 28.0646C14.4227 26.7436 14.8877 25.5091 15.7322 24.5885C16.6856 23.5493 18.0348 23 19.6341 23C23.0705 23 24.8682 25.5478 24.8682 28.0646ZM22.3745 28.0664C22.3745 26.7604 21.5169 25.3549 19.6341 25.3549C17.7142 25.3549 16.8546 26.6998 16.8546 28.0323C16.8546 29.3381 17.7341 30.7435 19.6646 30.7435C20.5119 30.7435 21.2163 30.458 21.701 29.9179C22.1354 29.4344 22.3745 28.7768 22.3745 28.0664ZM32.1321 24.9537C31.8207 24.9594 31.3955 25.1535 31.1872 25.3851L15.728 42.573C15.5198 42.8047 15.6673 43.1295 15.9787 43.1295H18.0021C18.3135 43.1295 18.7383 42.9396 18.9462 42.7077L34.3098 25.5233C34.5176 25.2912 34.5038 24.9135 33.9892 24.9137L32.1321 24.9537ZM26.6151 36.6218C27.5505 35.6025 28.8741 35.0633 30.4424 35.0633C33.8135 35.0633 35.5772 37.5628 35.5772 40.0317C35.5772 41.3281 35.1187 42.5394 34.2861 43.4425C33.3465 44.4614 32.0176 45 30.4425 45C27.0863 45 25.3303 42.5006 25.3303 40.0317C25.3303 38.7358 25.7867 37.5246 26.6151 36.6218ZM27.7388 39.9998C27.7388 41.3096 28.5945 42.7201 30.4728 42.7201C31.3172 42.7201 32.0195 42.4338 32.5035 41.8923C32.9373 41.407 33.1762 40.7467 33.1762 40.0335C33.1762 38.7232 32.3209 37.3131 30.4425 37.3131C29.5978 37.3131 28.8957 37.5993 28.4118 38.1409C27.9777 38.6263 27.7388 39.2864 27.7388 39.9998Z" fill="white" fill-opacity="0.8"/>
</svg>
