<svg width="30" height="30" viewBox="0 0 30 30" fill="none" xmlns="http://www.w3.org/2000/svg">
<path d="M27.5928 19.6916C25.7561 19.6916 23.9527 19.4043 22.2437 18.8395C21.3916 18.549 20.4216 18.7745 19.8657 19.3409L16.4925 21.8873C12.5805 19.7991 10.1709 17.3902 8.11117 13.5076L10.5827 10.2223C11.2248 9.58102 11.4551 8.6443 11.1791 7.76539C10.612 6.04742 10.3238 4.24484 10.3238 2.40734C10.3239 1.07992 9.24398 0 7.91664 0H2.40719C1.07992 0 0 1.07992 0 2.40719C0 17.6221 12.378 30 27.5928 30C28.9202 30 30.0001 28.9201 30.0001 27.5927V22.0988C30 20.7715 28.9201 19.6916 27.5928 19.6916ZM28.3334 27.5928C28.3334 28.0013 28.0013 28.3334 27.5928 28.3334C13.2967 28.3334 1.66672 16.7033 1.66672 2.40727C1.66672 1.99875 1.99875 1.66672 2.40727 1.66672H7.91672C8.32523 1.66672 8.65727 1.99875 8.65727 2.40727C8.65727 4.42305 8.97383 6.40141 9.59313 8.27563C9.67937 8.55234 9.60938 8.83875 9.32945 9.13016L6.46484 12.924C6.27281 13.1787 6.24266 13.5197 6.38672 13.8037C8.72477 18.3992 11.5658 21.2402 16.1938 23.6116C16.4754 23.7589 16.8205 23.728 17.076 23.5352L20.957 20.5949C21.1531 20.3988 21.447 20.3288 21.7123 20.4191C23.5995 21.0425 25.5778 21.3583 27.5928 21.3583C28.0013 21.3583 28.3334 21.6903 28.3334 22.0988V27.5928Z" fill="#62487C"/>
</svg>
