<svg width="55" height="55" viewBox="0 0 55 55" fill="none" xmlns="http://www.w3.org/2000/svg">
<path d="M46.8641 24.2236H29.835C29.3899 24.2236 29.0293 24.5844 29.0293 25.0293C29.0293 25.4742 29.3899 25.835 29.835 25.835H46.8641C47.3092 25.835 47.6698 25.4742 47.6698 25.0293C47.6698 24.5844 47.3092 24.2236 46.8641 24.2236Z" fill="#62487C" fill-opacity="0.7"/>
<path d="M46.8649 28.5092H33.1221C32.677 28.5092 32.3164 28.87 32.3164 29.3149C32.3164 29.7598 32.677 30.1206 33.1221 30.1206H46.8649C47.3099 30.1206 47.6705 29.7598 47.6705 29.3149C47.6705 28.87 47.3099 28.5092 46.8649 28.5092Z" fill="#62487C" fill-opacity="0.7"/>
<path d="M46.8641 32.7948H35.2646C34.8196 32.7948 34.459 33.1556 34.459 33.6005C34.459 34.0454 34.8196 34.4062 35.2646 34.4062H46.8641C47.3091 34.4062 47.6697 34.0454 47.6697 33.6005C47.6697 33.1556 47.3091 32.7948 46.8641 32.7948Z" fill="#62487C" fill-opacity="0.7"/>
<path d="M40.5526 37.0804H35.4326C34.9876 37.0804 34.627 37.4411 34.627 37.8861C34.627 38.331 34.9876 38.6917 35.4326 38.6917H40.5526C40.9976 38.6917 41.3582 38.331 41.3582 37.8861C41.3582 37.4411 40.9976 37.0804 40.5526 37.0804Z" fill="#62487C" fill-opacity="0.7"/>
<path d="M28.332 12.337H17.5713C17.1262 12.337 16.7656 12.6977 16.7656 13.1426C16.7656 13.5876 17.1262 13.9483 17.5713 13.9483H28.332C28.777 13.9483 29.1376 13.5876 29.1376 13.1426C29.1376 12.6977 28.7769 12.337 28.332 12.337Z" fill="#62487C" fill-opacity="0.7"/>
<path d="M10.2709 32.4463C9.97896 32.7821 10.0145 33.291 10.3503 33.583L14.9144 37.5505C14.8461 37.7564 14.8079 37.9757 14.8079 38.2041C14.8079 39.3541 15.7434 40.2895 16.8933 40.2895C18.0431 40.2895 18.9787 39.3541 18.9787 38.2041C18.9787 38.1241 18.9731 38.0454 18.9643 37.9677L21.2442 36.6906C21.6324 36.4732 21.7708 35.9821 21.5534 35.5939C21.3359 35.2057 20.8447 35.0675 20.4568 35.2848L18.1753 36.5629C17.8212 36.2856 17.3768 36.1188 16.8933 36.1188C16.5626 36.1188 16.251 36.1982 15.973 36.3357L11.4076 32.3669C11.0717 32.0749 10.5628 32.1104 10.2709 32.4463ZM17.3673 38.2041C17.3673 38.4656 17.1548 38.6782 16.8933 38.6782C16.6318 38.6782 16.4192 38.4656 16.4192 38.2041C16.4192 37.9427 16.6318 37.73 16.8933 37.73C17.1548 37.73 17.3673 37.9427 17.3673 38.2041Z" fill="#62487C" fill-opacity="0.7"/>
<path d="M16.2233 28.4367C16.6176 29.0346 17.5687 28.8212 17.688 28.1219C17.8096 27.4088 16.9617 26.9169 16.3974 27.3541C16.067 27.6101 15.9952 28.0901 16.2233 28.4367Z" fill="#62487C" fill-opacity="0.7"/>
<path d="M17.5623 47.9725C17.1795 47.3774 16.2404 47.5815 16.1023 48.2614C16.0305 48.6153 16.2156 48.9848 16.5389 49.1427C16.8341 49.2869 17.1977 49.2336 17.4393 49.0107C17.726 48.7463 17.7808 48.2968 17.5623 47.9725Z" fill="#62487C" fill-opacity="0.7"/>
<path d="M11.1148 29.8053C11.5211 30.399 12.4729 30.1933 12.5818 29.4762C12.6912 28.7549 11.8142 28.2724 11.2618 28.745C10.9544 29.0078 10.8935 29.4685 11.1148 29.8053Z" fill="#62487C" fill-opacity="0.7"/>
<path d="M21.8442 46.2612C21.4848 46.3285 21.2156 46.6488 21.1964 47.0114C21.179 47.3409 21.3764 47.6561 21.6777 47.7882C22.3349 48.0764 23.0266 47.3847 22.7384 46.7275C22.5892 46.3869 22.2096 46.1875 21.8442 46.2612Z" fill="#62487C" fill-opacity="0.7"/>
<path d="M8.79046 32.7884C8.66209 32.4849 8.35744 32.2831 8.02637 32.2915C7.69658 32.2999 7.39946 32.5149 7.28838 32.8252C7.17495 33.1421 7.27539 33.5054 7.53524 33.7193C7.80583 33.942 8.20136 33.9606 8.4929 33.7671C8.80754 33.5581 8.93763 33.1377 8.79046 32.7884Z" fill="#62487C" fill-opacity="0.7"/>
<path d="M24.9481 43.4693C25.024 43.8348 25.3446 44.1074 25.7189 44.1167C26.027 44.1243 26.3197 43.949 26.4575 43.6736C26.606 43.3769 26.5567 43.0105 26.3313 42.7663C26.0951 42.5102 25.7094 42.4358 25.3945 42.5839C25.0607 42.7406 24.8822 43.1096 24.9481 43.4693Z" fill="#62487C" fill-opacity="0.7"/>
<path d="M7.466 38.0467C7.33666 37.3557 6.39243 37.1764 6.00721 37.7566C5.81686 38.0433 5.82997 38.4266 6.04073 38.6986C6.26019 38.9818 6.65411 39.0851 6.98475 38.9479C7.33473 38.8027 7.54163 38.4188 7.466 38.0467Z" fill="#62487C" fill-opacity="0.7"/>
<path d="M26.3634 37.8963C26.2315 38.2081 26.3207 38.5822 26.5723 38.8065C26.8273 39.0339 27.2078 39.0718 27.5041 38.9044C28.1161 38.559 27.9979 37.6164 27.3222 37.4281C26.9358 37.3204 26.5163 37.5251 26.3634 37.8963Z" fill="#62487C" fill-opacity="0.7"/>
<path d="M12.4542 46.6039C12.0741 46.0116 11.1287 46.2115 10.9944 46.8929C10.9277 47.2315 11.0898 47.5807 11.3883 47.7509C11.6783 47.9163 12.051 47.8811 12.3054 47.6654C12.6122 47.4052 12.6806 46.9385 12.4542 46.6039Z" fill="#62487C" fill-opacity="0.7"/>
<path d="M22.5692 28.788C22.0551 28.274 21.1411 28.6874 21.1968 29.4168C21.2239 29.7729 21.491 30.0794 21.8431 30.1479C22.1538 30.2084 22.4796 30.0777 22.661 29.8183C22.8819 29.5024 22.8411 29.0597 22.5692 28.788Z" fill="#62487C" fill-opacity="0.7"/>
<path d="M8.78975 43.0031C8.6587 42.6932 8.34352 42.4912 8.0059 42.5075C7.66892 42.5238 7.37318 42.7561 7.27522 43.078C7.17821 43.397 7.29358 43.7525 7.55956 43.9536C7.84369 44.1684 8.24738 44.1686 8.53141 43.9536C8.82026 43.735 8.92758 43.338 8.78975 43.0031Z" fill="#62487C" fill-opacity="0.7"/>
<path d="M26.4827 32.7884C26.2199 32.1333 25.2637 32.1459 24.9948 32.7884C24.8579 33.1157 24.9606 33.5104 25.2401 33.7291C25.5006 33.933 25.8667 33.9573 26.1508 33.7885C26.4889 33.5877 26.636 33.1522 26.4827 32.7884Z" fill="#62487C" fill-opacity="0.7"/>
<path d="M30.0075 38.2046C30.0075 30.9728 24.1246 25.0894 16.8935 25.0894C9.66182 25.0894 3.77832 30.9728 3.77832 38.2046C3.77832 41.1442 4.72804 43.9208 6.52456 46.2344C6.79763 46.5859 7.30369 46.6494 7.65507 46.3766C8.00645 46.1036 8.07004 45.5976 7.79719 45.2461C6.22217 43.2177 5.38965 40.7829 5.38965 38.2046C5.38965 31.8614 10.5502 26.7008 16.8935 26.7008C23.2361 26.7008 28.3962 31.8614 28.3962 38.2046C28.3962 44.5472 23.2361 49.7073 16.8935 49.7073C14.4852 49.7073 12.1788 48.9712 10.2237 47.5784C9.8613 47.3201 9.35803 47.4049 9.10011 47.7672C8.84198 48.1296 8.92641 48.6327 9.28885 48.8908C11.5185 50.4791 14.1481 51.3188 16.8935 51.3188C24.1247 51.3186 30.0075 45.4357 30.0075 38.2046Z" fill="#62487C" fill-opacity="0.7"/>
<path d="M54.9021 21.2982C54.9018 17.7955 53.5384 14.5039 51.0633 12.0299L42.8733 3.83872C40.3968 1.36329 37.1047 0 33.6036 0H14.6223C11.8163 0 9.53359 2.28314 9.53359 5.08965V23.1097C3.95131 25.8423 0.0976562 31.5813 0.0976562 38.2042C0.0976562 47.448 7.6044 54.971 16.8419 54.9986C16.8599 54.9995 16.8771 55 16.8928 55H49.8136C52.6194 55 54.9021 52.7169 54.9021 49.9104V21.2996V21.2985C54.9021 21.2984 54.9021 21.2983 54.9021 21.2982ZM1.70898 38.2042C1.70898 29.8318 8.52039 23.0204 16.8928 23.0204C25.2653 23.0204 32.0767 29.8318 32.0767 38.2042C32.0767 46.5765 25.2653 53.3879 16.8928 53.3879C8.52039 53.3879 1.70898 46.5764 1.70898 38.2042ZM53.2908 49.9104C53.2908 51.8283 51.7309 53.3887 49.8136 53.3887H24.0647C29.7478 50.6936 33.6879 44.9006 33.6879 38.2042C33.6879 28.9433 26.1536 21.4091 16.8927 21.4091C14.8747 21.4091 12.9389 21.7671 11.1449 22.4225V5.08965C11.1449 3.17174 12.7048 1.61133 14.6222 1.61133H31.7914C35.1564 1.61133 37.8941 4.34897 37.8941 7.71396V11.9185C37.8941 13.9148 39.0698 15.7358 40.8894 16.5575C41.2953 16.7407 41.7723 16.5602 41.9552 16.1547C42.1384 15.7492 41.9581 15.2721 41.5526 15.0889C40.3091 14.5273 39.5055 13.2828 39.5055 11.9185V7.71396C39.5055 5.54641 38.607 3.58499 37.1627 2.18228C38.8729 2.74141 40.4512 3.69606 41.734 4.97814L49.9241 13.1693C51.2328 14.4774 52.1871 16.0459 52.7387 17.7589C51.3348 16.3034 49.3653 15.3968 47.1882 15.3968H44.7862C44.3412 15.3968 43.9806 15.7575 43.9806 16.2024C43.9806 16.6474 44.3412 17.0081 44.7862 17.0081H47.1881C50.5531 17.0081 53.2908 19.7458 53.2908 23.1107V49.9104Z" fill="#62487C" fill-opacity="0.7"/>
</svg>
