<svg width="53" height="55" viewBox="0 0 53 55" fill="none" xmlns="http://www.w3.org/2000/svg">
<path d="M52.053 21.2996C52.053 17.797 50.6892 14.5049 48.213 12.03L40.0232 3.83904C37.5476 1.36329 34.2556 0 30.7534 0H11.772C8.96609 0 6.68338 2.28314 6.68338 5.08965V27.6859C5.84774 28.2546 4.85624 28.6498 3.71209 28.8653C1.88022 29.2108 0.687195 30.9097 0.995818 32.7319C1.18617 33.8641 1.43485 35.02 1.73477 36.1675C1.84724 36.5981 2.28746 36.8558 2.71801 36.7433C3.14844 36.6308 3.40626 36.1905 3.29368 35.7601C3.00568 34.6586 2.7672 33.5498 2.58448 32.4638C2.42378 31.515 3.05015 30.6299 4.01029 30.4488C6.85203 29.9137 8.93537 28.4503 10.2025 26.099C10.581 25.3968 11.3161 24.9605 12.1209 24.9605H19.7704C20.5744 24.9605 21.3091 25.3968 21.6876 26.099C22.9548 28.4503 25.0386 29.9138 27.8806 30.4487C28.8403 30.63 29.4667 31.5152 29.3066 32.4642C28.8629 35.0944 27.8978 39.0619 25.8209 43.0264C23.3988 47.65 20.0776 51.1 15.9451 53.2873C13.0966 51.7792 10.6146 49.6534 8.56294 46.9638C6.84494 44.7116 5.42214 42.061 4.33417 39.086C4.18131 38.668 3.71853 38.4533 3.30077 38.606C2.8829 38.7589 2.66795 39.2214 2.82081 39.6394C3.85614 42.4705 5.18516 45.0266 6.77501 47.2523L6.79402 50.0168C6.80852 52.1284 8.121 54.0124 10.0602 54.7049C10.6087 54.9008 11.1846 55.0002 11.7717 55.0002H46.9621C49.7685 55.0002 52.0517 52.7171 52.0517 49.9106L52.053 21.2996ZM10.6023 53.1873C9.29824 52.7215 8.41545 51.4428 8.40556 50.0055L8.40073 49.3062C9.78089 50.8823 11.318 52.2469 12.9985 53.3886H11.7718C11.37 53.3887 10.9765 53.3209 10.6023 53.1873ZM46.9623 53.3887H18.8971C22.312 51.0713 25.1139 47.8488 27.2484 43.7742C29.4236 39.6222 30.4325 35.4779 30.8957 32.7322C31.2031 30.9094 30.01 29.2109 28.1792 28.8652C25.8381 28.4245 24.1313 27.2366 23.1061 25.3345C22.4461 24.1099 21.168 23.3491 19.7705 23.3491H12.121C10.7228 23.3491 9.44423 24.1099 8.78423 25.3345C8.63577 25.6098 8.47141 25.8685 8.2946 26.1137V5.08965C8.2946 3.17174 9.85447 1.61133 11.7718 1.61133H28.9422C32.3071 1.61133 35.0448 4.34897 35.0448 7.71396V11.9185C35.0448 13.9148 36.2205 15.7358 38.04 16.5575C38.4457 16.7405 38.9228 16.5604 39.1059 16.1547C39.2889 15.7491 39.1087 15.2721 38.7032 15.0889C37.4595 14.5273 36.656 13.2828 36.656 11.9185V7.71396C36.656 5.53706 35.7495 3.5678 34.2943 2.16391C36.0066 2.71562 37.5751 3.66975 38.8836 4.97825L47.0736 13.1694C48.3825 14.4777 49.3369 16.046 49.8888 17.7583C48.4849 16.3032 46.5157 15.3968 44.3388 15.3968H41.9358C41.4909 15.3968 41.1301 15.7575 41.1301 16.2024C41.1301 16.6474 41.4909 17.0081 41.9358 17.0081H44.3388C47.6893 17.0081 50.4169 19.7223 50.4404 23.0673V49.9104C50.4406 51.8284 48.8802 53.3887 46.9623 53.3887Z" fill="#62487C" fill-opacity="0.7"/>
<path d="M44.0145 24.2236H25.4111C24.9662 24.2236 24.6055 24.5844 24.6055 25.0293C24.6055 25.4742 24.9662 25.835 25.4111 25.835H44.0145C44.4594 25.835 44.8201 25.4742 44.8201 25.0293C44.8201 24.5844 44.4594 24.2236 44.0145 24.2236Z" fill="#62487C" fill-opacity="0.7"/>
<path d="M44.0148 28.5087H31.9844C31.5394 28.5087 31.1787 28.8694 31.1787 29.3144C31.1787 29.7593 31.5394 30.12 31.9844 30.12H44.0148C44.4597 30.12 44.8204 29.7593 44.8204 29.3144C44.8204 28.8694 44.4597 28.5087 44.0148 28.5087Z" fill="#62487C" fill-opacity="0.7"/>
<path d="M44.014 32.7948H33.2695C32.8246 32.7948 32.4639 33.1556 32.4639 33.6005C32.4639 34.0454 32.8246 34.4062 33.2695 34.4062H44.014C44.4589 34.4062 44.8196 34.0454 44.8196 33.6005C44.8196 33.1556 44.4589 32.7948 44.014 32.7948Z" fill="#62487C" fill-opacity="0.7"/>
<path d="M26.2879 13.1426C26.2879 12.6977 25.9272 12.337 25.4822 12.337H14.7217C14.2767 12.337 13.916 12.6977 13.916 13.1426C13.916 13.5876 14.2767 13.9483 14.7217 13.9483H25.4822C25.9272 13.9483 26.2879 13.5876 26.2879 13.1426Z" fill="#62487C" fill-opacity="0.7"/>
<path d="M15.5115 50.6306C15.644 50.7156 15.7951 50.758 15.9462 50.758C16.0974 50.758 16.2485 50.7156 16.381 50.6306C19.4907 48.6374 22.0481 45.7548 23.9825 42.0628C25.7238 38.7387 26.6178 35.4049 27.0611 33.1935C27.1444 32.778 26.8915 32.3689 26.4825 32.2577C23.6829 31.4966 21.4614 29.8292 20.058 27.4358C19.9134 27.1891 19.649 27.0376 19.363 27.0376H12.5294C12.2434 27.0376 11.9789 27.1891 11.8343 27.4358C10.4312 29.8292 8.2096 31.4966 5.40987 32.2577C5.0008 32.3689 4.74793 32.778 4.83129 33.1936C5.27473 35.4052 6.16891 38.7392 7.91011 42.0629C9.84414 45.7547 12.4016 48.6374 15.5115 50.6306ZM12.9808 28.6488H18.9116C20.408 30.9939 22.6089 32.6879 25.3295 33.5922C24.8663 35.6673 24.0302 38.4991 22.5551 41.315C20.8441 44.5808 18.6226 47.1591 15.9461 48.9863C13.2697 47.159 11.0481 44.5808 9.33732 41.315C7.86231 38.4995 7.02603 35.6675 6.56272 33.5922C9.2835 32.688 11.4846 30.9937 12.9808 28.6488Z" fill="#62487C" fill-opacity="0.7"/>
<path d="M15.2325 43.6212C15.3862 43.8081 15.6149 43.915 15.8545 43.915C15.8776 43.915 15.9009 43.9141 15.9241 43.912C16.1885 43.8891 16.4247 43.7375 16.5556 43.5066L21.4138 34.9333C21.6332 34.5461 21.4972 34.0545 21.1101 33.8351C20.7228 33.6157 20.2312 33.7517 20.0119 34.1389L15.7319 41.6919L12.8332 38.1681C12.5506 37.8244 12.0429 37.775 11.6991 38.0577C11.3555 38.3404 11.3061 38.848 11.5888 39.1918L15.2325 43.6212Z" fill="#62487C" fill-opacity="0.7"/>
</svg>
