<svg width="55" height="55" viewBox="0 0 55 55" fill="none" xmlns="http://www.w3.org/2000/svg">
<path d="M55 21.2996C55 17.7971 53.6363 14.505 51.1601 12.0299L42.9703 3.83894C40.4947 1.3634 37.2026 0 33.7004 0H14.7189C11.9131 0 9.63037 2.28325 9.63037 5.08965V33.8801L9.63757 34.9027C8.72309 34.9397 7.82461 35.0992 6.96094 35.3789C6.53759 35.5159 6.30556 35.9701 6.44263 36.3935C6.57959 36.8167 7.03377 37.0488 7.45723 36.9118C8.29061 36.6419 9.16384 36.5052 10.0525 36.5052C14.7076 36.5052 18.4948 40.2923 18.4948 44.9475C18.4948 49.6019 14.7077 53.3887 10.0525 53.3887C5.39806 53.3887 1.61133 49.6019 1.61133 44.9475C1.61133 42.4693 2.69446 40.1255 4.58294 38.5172C4.92175 38.2287 4.96246 37.7202 4.67393 37.3814C4.38539 37.0425 3.87686 37.0019 3.53815 37.2904C1.2896 39.2054 0 41.9964 0 44.9475C0 50.4904 4.50957 55 10.0525 55C10.9481 55 11.8165 54.8816 12.6434 54.661C12.6434 54.661 13.5534 55 14.7195 55C15.8855 55 49.9109 55 49.9109 55C52.7167 55 54.9995 52.7169 54.9995 49.9104L55 21.2996ZM20.1062 44.9475C20.1062 41.4173 18.2769 38.3065 15.5167 36.5124C20.0403 36.6625 23.6747 40.3874 23.6747 44.9475C23.6747 49.5069 20.0404 53.2312 15.5169 53.3815C18.277 51.5875 20.1062 48.4772 20.1062 44.9475ZM49.9109 53.3887H20.6864C23.4523 51.5958 25.2861 48.4819 25.2861 44.9475C25.2861 39.404 20.7766 34.8938 15.2336 34.8938C14.3532 34.8938 13.4827 35.0087 12.6419 35.2325C12.1895 35.1118 11.7246 35.022 11.2495 34.9654L11.2418 33.8744V5.08965C11.2418 3.17174 12.8017 1.61133 14.7191 1.61133H31.8894C35.2544 1.61133 37.992 4.34897 37.992 7.71396V11.9185C37.992 13.9149 39.1676 15.7358 40.9872 16.5575C41.3933 16.7409 41.8701 16.5603 42.0531 16.1549C42.2362 15.7493 42.056 15.2721 41.6505 15.089C40.407 14.5274 39.6033 13.2829 39.6033 11.9185V7.71396C39.6033 5.54673 38.7047 3.5851 37.2608 2.18249C38.9708 2.74162 40.5488 3.69617 41.8308 4.97825L50.0209 13.1693C51.3297 14.4776 52.2841 16.0459 52.836 17.7582C51.4322 16.3031 49.463 15.3967 47.2861 15.3967H44.8831C44.4381 15.3967 44.0775 15.7574 44.0775 16.2023C44.0775 16.6473 44.4381 17.008 44.8831 17.008H47.2861C50.6443 17.008 53.377 19.7345 53.3882 23.09V49.9104C53.3881 51.8284 51.8283 53.3887 49.9109 53.3887Z" fill="#62487C" fill-opacity="0.7"/>
<path d="M46.9617 19.4187H17.6689C17.224 19.4187 16.8633 19.7794 16.8633 20.2243C16.8633 20.6693 17.224 21.03 17.6689 21.03H46.9616C47.4066 21.03 47.7673 20.6693 47.7673 20.2243C47.7673 19.7794 47.4067 19.4187 46.9617 19.4187Z" fill="#62487C" fill-opacity="0.7"/>
<path d="M46.9617 23.7043H17.6689C17.224 23.7043 16.8633 24.065 16.8633 24.5099C16.8633 24.9549 17.224 25.3156 17.6689 25.3156H46.9616C47.4066 25.3156 47.7673 24.9549 47.7673 24.5099C47.7673 24.065 47.4067 23.7043 46.9617 23.7043Z" fill="#62487C" fill-opacity="0.7"/>
<path d="M46.9617 27.9898H17.6689C17.224 27.9898 16.8633 28.3506 16.8633 28.7955C16.8633 29.2404 17.224 29.6012 17.6689 29.6012H46.9616C47.4066 29.6012 47.7673 29.2404 47.7673 28.7955C47.7673 28.3506 47.4067 27.9898 46.9617 27.9898Z" fill="#62487C" fill-opacity="0.7"/>
<path d="M28.4295 32.2754H17.6689C17.224 32.2754 16.8633 32.6362 16.8633 33.0811C16.8633 33.526 17.224 33.8868 17.6689 33.8868H28.4295C28.8745 33.8868 29.2352 33.526 29.2352 33.0811C29.2352 32.6362 28.8745 32.2754 28.4295 32.2754Z" fill="#62487C" fill-opacity="0.7"/>
<path d="M17.6689 12.8741H28.4295C28.8745 12.8741 29.2352 12.5133 29.2352 12.0684C29.2352 11.6235 28.8745 11.2627 28.4295 11.2627H17.6689C17.224 11.2627 16.8633 11.6235 16.8633 12.0684C16.8633 12.5133 17.224 12.8741 17.6689 12.8741Z" fill="#62487C" fill-opacity="0.7"/>
<path d="M43.911 39.8494C43.6771 39.7667 43.4377 39.68 43.1991 39.5897V35.7799C43.7995 35.9236 44.157 36.2273 44.188 36.2543C44.5153 36.5508 45.0212 36.5285 45.3209 36.2033C45.6226 35.8762 45.602 35.3665 45.2749 35.0649C45.229 35.0226 44.4594 34.329 43.1991 34.14V33.3619C43.1991 32.917 42.8385 32.5562 42.3934 32.5562C41.9484 32.5562 41.5878 32.917 41.5878 33.3619V34.2018C41.4682 34.2282 41.3468 34.2585 41.2228 34.2958C40.0703 34.643 39.2092 35.6294 38.9754 36.8699C38.7622 38.001 39.1247 39.0918 39.9211 39.7164C40.3432 40.0474 40.8684 40.3507 41.5879 40.6709V45.5018C40.9656 45.4559 40.5343 45.3039 39.8279 44.8418C39.4554 44.5981 38.9564 44.7026 38.7126 45.0749C38.469 45.4472 38.5734 45.9466 38.9458 46.1901C39.9758 46.8639 40.6794 47.0649 41.5879 47.1159V47.9872C41.5879 48.4321 41.9485 48.7928 42.3935 48.7928C42.8386 48.7928 43.1992 48.4321 43.1992 47.9872V47.0519C45.0068 46.6973 46.0626 45.2068 46.2966 43.8145C46.5975 42.0244 45.661 40.4681 43.911 39.8494ZM40.9156 38.4485C40.5943 38.1965 40.4576 37.7059 40.559 37.1683C40.6498 36.6865 40.9678 36.1075 41.5879 35.8734V38.8782C41.3348 38.7409 41.106 38.5979 40.9156 38.4485ZM44.7075 43.5473C44.5835 44.2849 44.0698 45.0667 43.1991 45.3782V41.3061C43.2572 41.3269 43.3141 41.3475 43.374 41.3687C44.8627 41.8949 44.7711 43.1693 44.7075 43.5473Z" fill="#62487C" fill-opacity="0.7"/>
<path d="M4.85215 46.0939C5.04379 47.0104 5.30848 47.5259 5.74193 48.0383L5.36928 48.411C5.05464 48.7256 5.05464 49.2357 5.36928 49.5503C5.52655 49.7075 5.7328 49.7863 5.93894 49.7863C6.14508 49.7863 6.35133 49.7077 6.5086 49.5503L6.93549 49.1234C7.46379 49.4408 8.037 49.5811 8.59441 49.5811C9.31177 49.5811 10.0028 49.35 10.5369 48.9696C11.7728 48.0894 12.1398 46.6172 11.4719 45.2189C11.4047 45.0782 11.3369 44.934 11.2703 44.7886L13.1452 42.9136C13.2725 43.1861 13.2996 43.4057 13.3038 43.4519C13.344 43.8952 13.7364 44.2222 14.1788 44.1816C14.622 44.1414 14.9487 43.7496 14.9085 43.3065C14.8913 43.1168 14.7982 42.4365 14.3241 41.7347L14.656 41.4028C14.9706 41.0881 14.9706 40.578 14.656 40.2634C14.3414 39.9488 13.8312 39.9488 13.5167 40.2634L13.1449 40.6352C13.0962 40.6064 13.0463 40.5782 12.9949 40.5506C12.103 40.0716 11.006 40.145 10.1318 40.7419C9.33003 41.2894 8.89616 42.1608 8.9995 43.0162C9.0488 43.4243 9.16353 43.8677 9.36677 44.4133L6.88823 46.8918C6.65394 46.5841 6.53954 46.2905 6.42943 45.7639C6.33844 45.3283 5.91133 45.0494 5.47595 45.1401C5.04036 45.2315 4.76117 45.6584 4.85215 46.0939ZM9.60235 47.6572C9.22304 47.9272 8.67745 48.0658 8.14807 47.9111L10.0576 46.0016C10.4473 46.9227 9.87391 47.4637 9.60235 47.6572ZM10.5991 42.8231C10.5687 42.5712 10.7419 42.2767 11.0404 42.0729C11.2636 41.9204 11.5868 41.8078 11.9174 41.8628L10.6538 43.1265C10.6298 43.0212 10.6108 42.9193 10.5991 42.8231Z" fill="#62487C" fill-opacity="0.7"/>
</svg>
