<svg width="18" height="17" viewBox="0 0 18 17" fill="none" xmlns="http://www.w3.org/2000/svg">
<path d="M8.19013 0.966258C8.5477 0.191866 9.64835 0.191864 10.0059 0.966256L11.6878 4.60868C11.8335 4.92434 12.1328 5.14164 12.478 5.18254L16.4637 5.65461C17.3114 5.75502 17.6517 6.80296 17.0247 7.38221L14.0794 10.1031C13.8237 10.3393 13.7092 10.6914 13.7771 11.0327L14.5592 14.9645C14.7256 15.8013 13.835 16.4488 13.0904 16.0324L9.58608 14.0729C9.2828 13.9033 8.91324 13.9033 8.60997 14.0729L5.10569 16.0324C4.361 16.4488 3.4704 15.8013 3.63685 14.9645L4.4189 11.0327C4.4868 10.6914 4.37233 10.3393 4.11669 10.1031L1.17136 7.38221C0.544336 6.80296 0.884603 5.75502 1.73231 5.65461L5.71802 5.18254C6.06329 5.14164 6.36254 4.92434 6.50829 4.60868L8.19013 0.966258Z" fill="#FDC167"/>
</svg>
