<svg width="22" height="22" viewBox="0 0 22 22" fill="none" xmlns="http://www.w3.org/2000/svg">
<path d="M21.8063 8.33057L19.8009 6.32512C19.5624 6.08654 19.1823 6.06677 18.9202 6.2792C18.0142 7.01383 16.7079 6.94471 15.8816 6.11845C15.0553 5.2922 14.9864 3.98592 15.7208 3.07987C15.9333 2.81782 15.9135 2.43767 15.675 2.19913L13.6695 0.193682C13.4123 -0.0635578 12.995 -0.0636107 12.7379 0.193682L0.192237 12.7393C-0.0650556 12.9965 -0.0650556 13.4137 0.192237 13.671L2.19768 15.6763C2.19789 15.6766 2.19816 15.6769 2.19832 15.677C2.45556 15.9343 2.87275 15.9343 3.12999 15.677C3.15393 15.653 3.1757 15.6276 3.19525 15.6011C3.24022 15.5471 3.28741 15.4954 3.33597 15.4467C4.22305 14.5597 5.66624 14.5597 6.55327 15.4466C7.44024 16.3337 7.44024 17.777 6.55321 18.6639C6.49741 18.7198 6.43728 18.7738 6.37455 18.8247C6.22955 18.9424 6.1413 19.1159 6.13153 19.3021C6.1218 19.4885 6.19166 19.6703 6.32366 19.8022L8.329 21.8077C8.5863 22.065 9.00349 22.065 9.26073 21.8077L21.8062 9.2622C22.0636 9.00501 22.0636 8.58786 21.8063 8.33057ZM13.3349 12.5026C13.3349 12.5543 13.3098 12.6026 13.2678 12.6324C13.2405 12.6518 13.2082 12.6619 13.1756 12.6619C13.158 12.6619 13.1403 12.6589 13.1232 12.653L11.0754 11.9392C11.0566 12.5774 11.0042 13.166 10.9237 13.6349C10.9091 13.7199 10.8937 13.7997 10.8776 13.8746L11.9439 14.4671C11.9714 14.4824 11.9884 14.5113 11.9884 14.5428V14.9037C11.9884 14.9316 11.9749 14.9578 11.9521 14.9742C11.9373 14.9846 11.9197 14.9901 11.902 14.9901C11.8924 14.9901 11.8828 14.9885 11.8736 14.9853L10.6272 14.5508C10.5699 14.6229 10.4914 14.6834 10.387 14.6834C10.2825 14.6834 10.204 14.6229 10.1467 14.5508L8.90034 14.9853C8.87387 14.9946 8.84459 14.9904 8.82182 14.9742C8.79894 14.9578 8.78541 14.9316 8.78541 14.9037V14.5428C8.78541 14.5113 8.80242 14.4823 8.8299 14.4671L9.89622 13.8746C9.8801 13.7997 9.86473 13.7199 9.85014 13.6349C9.76966 13.166 9.71735 12.5774 9.69843 11.9392L7.6506 12.653C7.60188 12.6699 7.54798 12.6624 7.50597 12.6324C7.46396 12.6026 7.43897 12.5543 7.43897 12.5026V11.8385C7.43897 11.7806 7.4703 11.7273 7.52082 11.6992L7.98341 11.4422V11.233C7.98341 11.0923 8.09744 10.9783 8.23811 10.9783C8.35505 10.9783 8.45329 11.0571 8.4833 11.1644L8.87255 10.9482V10.7554C8.87255 10.6147 8.98658 10.5006 9.12725 10.5006C9.23901 10.5006 9.33376 10.5727 9.36816 10.6728L9.71349 10.4809C9.73907 9.98646 9.78551 9.53296 9.85014 9.15651C9.90145 8.85795 9.96201 8.62126 10.0303 8.45306C10.065 8.36767 10.1705 8.10789 10.387 8.10789C10.6036 8.10789 10.7091 8.36772 10.7437 8.45306C10.812 8.62121 10.8726 8.85789 10.9239 9.15651C10.9885 9.53291 11.035 9.98646 11.0606 10.4809L11.4058 10.6728C11.4401 10.5727 11.5348 10.5006 11.6467 10.5006C11.7874 10.5006 11.9015 10.6147 11.9015 10.7554V10.9482L12.2906 11.1644C12.3206 11.0571 12.419 10.9783 12.5359 10.9783C12.6766 10.9783 12.7905 11.0924 12.7905 11.233V11.4422L13.2532 11.6992C13.3036 11.7273 13.3351 11.7806 13.3351 11.8385V12.5026H13.3349ZM17.6551 10.7469C17.3868 11.0152 16.9517 11.0152 16.6835 10.7469L11.2532 5.31661C10.9849 5.04833 10.9849 4.61337 11.2532 4.34509C11.5214 4.07681 11.9565 4.07681 12.2247 4.34509L17.6552 9.77551C17.9233 10.0438 17.9233 10.4787 17.6551 10.7469Z" fill="white"/>
</svg>
