<svg width="22" height="22" viewBox="0 0 22 22" fill="none" xmlns="http://www.w3.org/2000/svg">
<path d="M16.4825 0H5.5C2.47937 0 0 2.47937 0 5.51746V16.5C0 19.5206 2.47937 22 5.5 22H16.4825C19.5206 22 22 19.5206 22 16.4825V5.51746C22 2.47937 19.5206 0 16.4825 0ZM10.4063 4.52222C10.4413 3.98095 10.9476 4.17302 11.2095 4.1381C14.4921 4.24286 17.3206 7.19365 17.2857 10.3714C17.2857 10.6857 17.3905 11.1397 16.919 11.1397C16.4651 11.1397 16.5873 10.6683 16.5349 10.354C16.0984 6.98413 14.527 5.39524 11.1048 4.87143C10.8254 4.83651 10.3889 4.88889 10.4063 4.52222ZM15.3127 10.5111C14.7889 10.581 14.8937 10.127 14.8413 9.83016C14.4921 7.76984 13.7587 7.01905 11.646 6.56508C11.3317 6.49524 10.8429 6.54762 10.9302 6.07619C11 5.62222 11.4365 5.77937 11.7683 5.81429C13.881 6.05873 15.6095 7.85714 15.5921 9.83016C15.5571 10.0397 15.6968 10.4413 15.3127 10.5111ZM14.0032 9.42857C14.0032 9.70794 13.9683 9.96984 13.654 10.0048C13.427 10.0397 13.2873 9.84762 13.2524 9.62064C13.1651 8.78254 12.7111 8.27619 11.8381 8.13651C11.5762 8.10159 11.3317 8.01429 11.454 7.66508C11.5413 7.4381 11.7508 7.40317 11.9778 7.40317C12.9206 7.38571 14.0032 8.48571 14.0032 9.42857ZM17.3206 15.8714C16.954 16.8667 15.7143 17.8794 14.6492 17.8619C14.4921 17.827 14.1952 17.7746 13.9333 17.6698C9.25397 15.6968 5.84921 12.4492 3.92857 7.80476C3.28254 6.25079 3.96349 4.92381 5.5873 4.4C5.88413 4.29524 6.16349 4.29524 6.46032 4.4C7.15873 4.64444 8.92222 7.03651 8.95714 7.73492C8.99206 8.27619 8.60794 8.57302 8.24127 8.81746C7.5254 9.28889 7.5254 9.88254 7.83968 10.5635C8.52064 12.0651 9.69048 13.1127 11.2095 13.7762C11.7508 14.0206 12.2921 14.0032 12.6587 13.4444C13.3222 12.4492 14.1429 12.5016 15.0333 13.1127C15.4873 13.427 15.9413 13.7238 16.3603 14.0556C16.9365 14.527 17.6698 14.9111 17.3206 15.8714Z" fill="white"/>
</svg>
