<svg width="18" height="22" viewBox="0 0 18 22" fill="none" xmlns="http://www.w3.org/2000/svg">
<path d="M17.203 12.8807C16.951 9.59965 15.4234 7.54355 14.0757 5.72915C12.8278 4.04942 11.75 2.59888 11.75 0.459118C11.75 0.287243 11.6538 0.13015 11.5011 0.0513879C11.348 -0.0278465 11.1641 -0.0148699 11.0249 0.0862785C9.0009 1.53458 7.31214 3.9756 6.72223 6.30467C6.31269 7.92619 6.25851 9.74909 6.2509 10.953C4.38176 10.5538 3.95835 7.75792 3.95388 7.72745C3.93282 7.58244 3.84422 7.45624 3.71532 7.38731C3.58508 7.31929 3.43198 7.31435 3.29994 7.37971C3.20193 7.42715 0.894117 8.59976 0.75984 13.2817C0.75043 13.4374 0.75 13.5937 0.75 13.7499C0.75 18.2984 4.45111 21.9993 9 21.9993C9.00627 21.9997 9.01298 22.0006 9.01835 21.9993C9.02015 21.9993 9.02191 21.9993 9.02415 21.9993C13.5619 21.9863 17.25 18.2904 17.25 13.7499C17.25 13.5211 17.203 12.8807 17.203 12.8807ZM9 21.0827C7.48355 21.0827 6.25 19.7687 6.25 18.1534C6.25 18.0984 6.24957 18.0429 6.25357 17.9749C6.27191 17.2937 6.40129 16.8287 6.54318 16.5194C6.80907 17.0905 7.28439 17.6155 8.05649 17.6155C8.30984 17.6155 8.51484 17.4105 8.51484 17.1572C8.51484 16.5046 8.52829 15.7518 8.69075 15.0724C8.83534 14.47 9.18086 13.8291 9.61862 13.3153C9.81331 13.9822 10.1929 14.5219 10.5635 15.0487C11.0939 15.8024 11.6422 16.5816 11.7384 17.9104C11.7442 17.9892 11.7501 18.0684 11.7501 18.1534C11.75 19.7686 10.5165 21.0827 9 21.0827Z" fill="white"/>
</svg>
